<?xml version="1.0" standalone="no"?>
<!DOCTYPE svg PUBLIC "-//W3C//DTD SVG 20010904//EN"
 "http://www.w3.org/TR/2001/REC-SVG-20010904/DTD/svg10.dtd">
<svg version="1.0" xmlns="http://www.w3.org/2000/svg"
 width="2234.000000pt" height="2234.000000pt" viewBox="0 0 2234.000000 2234.000000"
 preserveAspectRatio="xMidYMid meet">
<metadata>
Created by potrace 1.11, written by Peter Selinger 2001-2013
</metadata>
<g transform="translate(0.000000,2234.000000) scale(0.100000,-0.100000)"
fill="#000000" stroke="none">
<path d="M15027 22104 c-1 -1 -58 -5 -127 -8 -69 -4 -145 -8 -170 -11 -25 -2
-79 -7 -120 -10 -41 -3 -86 -8 -100 -10 -14 -3 -45 -7 -70 -10 -25 -2 -61 -6
-80 -9 -41 -7 -102 -16 -145 -21 -16 -2 -46 -7 -65 -10 -19 -4 -45 -8 -58 -11
-12 -2 -32 -5 -45 -8 -12 -2 -39 -7 -61 -11 -21 -4 -48 -9 -60 -11 -11 -3 -32
-7 -46 -10 -14 -2 -36 -7 -50 -10 -14 -3 -32 -7 -40 -9 -8 -2 -33 -8 -55 -14
-22 -5 -55 -13 -74 -16 -19 -3 -37 -8 -41 -10 -3 -2 -17 -6 -31 -9 -36 -7
-223 -57 -231 -62 -5 -3 -18 -7 -30 -9 -21 -4 -222 -68 -258 -82 -8 -3 -21 -7
-29 -9 -34 -7 -468 -179 -570 -226 -148 -68 -331 -160 -450 -225 -63 -35 -115
-63 -117 -63 -6 0 -248 -149 -354 -218 -133 -86 -244 -164 -385 -271 -579
-438 -1088 -962 -1501 -1546 -109 -153 -284 -426 -284 -442 0 -6 -3 -13 -8
-15 -8 -3 -66 -100 -97 -163 -11 -22 -23 -42 -26 -45 -3 -3 -22 -39 -43 -80
-21 -41 -51 -98 -67 -126 -15 -28 -26 -54 -23 -56 2 -3 -2 -11 -11 -18 -8 -7
-15 -17 -15 -22 0 -4 -16 -40 -35 -78 -19 -39 -35 -74 -36 -78 -1 -4 -15 -36
-32 -72 -16 -36 -30 -69 -31 -75 -1 -5 -10 -28 -20 -50 -26 -59 -123 -313
-128 -335 -1 -3 -23 -67 -49 -142 -26 -76 -45 -138 -42 -138 3 0 1 -6 -5 -12
-8 -11 -23 -61 -24 -85 0 -5 -5 -19 -10 -33 -12 -30 -38 -126 -53 -191 -2 -11
-7 -29 -10 -39 -3 -10 -8 -28 -10 -39 -3 -12 -7 -29 -9 -38 -8 -31 -46 -217
-52 -248 -2 -16 -7 -37 -9 -45 -2 -8 -7 -31 -10 -50 -3 -19 -10 -60 -15 -90
-5 -30 -12 -71 -15 -90 -4 -19 -8 -53 -11 -75 -2 -22 -6 -49 -8 -60 -2 -11 -7
-49 -11 -85 -3 -36 -8 -76 -10 -90 -2 -14 -7 -61 -11 -105 -4 -44 -8 -93 -10
-110 -22 -218 -22 -843 1 -1065 2 -19 6 -71 10 -115 4 -44 8 -91 10 -105 2
-14 6 -50 9 -80 9 -77 16 -130 22 -162 2 -16 6 -40 8 -55 17 -113 21 -135 31
-183 2 -14 7 -40 10 -58 3 -18 12 -65 21 -105 9 -39 18 -85 20 -102 3 -16 7
-37 10 -45 3 -8 8 -26 10 -40 14 -75 106 -407 150 -540 15 -47 28 -87 29 -90
1 -3 4 -12 7 -20 3 -8 27 -73 53 -145 26 -71 52 -141 58 -155 5 -14 11 -29 13
-35 20 -76 317 -705 336 -713 5 -2 8 -7 8 -12 0 -28 347 -592 404 -657 6 -7
42 -57 80 -111 58 -82 84 -108 154 -158 46 -32 89 -64 95 -69 7 -6 44 -35 82
-65 251 -195 525 -463 733 -714 41 -50 83 -101 93 -114 10 -12 19 -26 19 -31
0 -5 4 -11 8 -13 14 -5 115 -146 202 -280 44 -68 84 -128 90 -135 5 -7 10 -14
10 -16 0 -3 28 -53 62 -113 72 -127 258 -509 258 -530 0 -3 7 -20 15 -37 29
-62 150 -416 160 -468 2 -10 6 -23 9 -27 3 -5 7 -19 10 -33 2 -13 18 -80 35
-149 16 -69 32 -138 35 -155 3 -16 8 -41 11 -55 6 -27 12 -63 20 -110 3 -16 8
-45 11 -62 8 -46 13 -84 19 -148 4 -30 8 -68 10 -85 27 -212 27 -863 0 -1003
-2 -11 -6 -48 -10 -81 -3 -33 -7 -68 -9 -78 -2 -10 -7 -38 -10 -63 -3 -25 -8
-54 -10 -65 -2 -11 -7 -40 -12 -65 -4 -25 -8 -47 -9 -50 -1 -3 -5 -25 -9 -50
-5 -25 -10 -52 -11 -60 -23 -125 -157 -576 -206 -696 -7 -16 -13 -34 -14 -39
-2 -6 -12 -31 -23 -55 -11 -25 -32 -74 -47 -110 -44 -107 -198 -408 -265 -520
-143 -239 -297 -454 -479 -670 -104 -123 -379 -404 -500 -509 -219 -191 -544
-423 -794 -565 -130 -74 -395 -206 -414 -206 -7 0 -13 -4 -13 -10 0 -5 -3 -9
-8 -8 -8 1 -24 -5 -89 -33 -23 -11 -44 -19 -46 -19 -3 0 -22 -8 -43 -17 -22
-9 -43 -18 -49 -19 -14 -4 -240 -84 -240 -85 0 0 -9 -3 -20 -5 -34 -8 -50 -12
-50 -14 0 -1 -7 -3 -15 -5 -8 -1 -48 -13 -89 -25 -41 -12 -82 -24 -92 -26 -11
-2 -27 -6 -37 -8 -9 -2 -35 -9 -57 -15 -22 -5 -53 -13 -70 -15 -16 -3 -41 -8
-55 -11 -14 -3 -36 -7 -50 -10 -14 -3 -36 -7 -50 -10 -14 -3 -38 -7 -55 -10
-16 -2 -41 -7 -55 -10 -14 -3 -46 -7 -71 -10 -25 -3 -56 -7 -69 -10 -12 -2
-57 -7 -98 -11 -42 -3 -85 -8 -96 -10 -116 -23 -691 -22 -876 1 -19 2 -62 7
-94 10 -33 3 -71 7 -85 10 -14 2 -48 7 -76 11 -117 15 -262 42 -412 78 -10 2
-38 9 -63 15 -25 6 -92 24 -150 41 -58 17 -109 32 -115 34 -32 8 -121 39 -195
66 -47 17 -93 33 -104 35 -10 2 -23 8 -30 13 -6 5 -27 15 -46 22 -35 13 -96
39 -160 67 -51 22 -318 156 -363 182 -20 11 -52 29 -70 39 -406 232 -871 613
-1190 975 -90 102 -271 328 -287 357 -6 11 -14 20 -18 20 -8 0 -1355 -1332
-1465 -1447 l-27 -29 103 -125 c177 -212 500 -551 647 -677 19 -17 55 -49 80
-72 124 -116 575 -470 599 -470 6 0 11 -3 11 -7 0 -5 21 -21 48 -38 26 -16 49
-32 52 -36 13 -18 473 -299 517 -316 10 -4 23 -11 28 -16 28 -24 346 -181 535
-264 317 -140 803 -308 1050 -363 19 -4 42 -10 50 -13 8 -4 26 -9 40 -11 40
-8 100 -21 138 -30 14 -4 151 -31 257 -52 11 -2 31 -6 45 -9 30 -6 98 -16 195
-30 22 -3 56 -8 75 -11 19 -3 55 -7 80 -10 25 -3 61 -7 80 -9 19 -2 67 -7 105
-11 39 -3 86 -7 105 -10 300 -32 979 -21 1316 21 16 2 58 6 93 10 34 4 70 8
80 10 10 2 42 6 71 10 29 4 62 9 74 11 12 2 37 6 56 9 19 3 46 7 60 10 14 3
41 8 60 11 19 3 62 12 95 19 69 16 107 24 150 31 17 3 48 10 70 16 22 5 48 12
57 14 63 14 220 55 238 61 8 3 20 7 25 8 6 2 37 11 70 21 33 10 65 19 70 20
14 3 257 83 275 91 8 3 17 7 20 7 3 1 19 7 35 13 17 7 59 23 95 36 36 14 74
28 85 32 11 5 22 9 25 10 3 1 23 9 45 19 66 29 89 39 101 41 20 5 389 178 404
191 8 6 36 21 61 32 25 12 85 44 133 71 48 28 89 51 91 51 9 0 216 127 340
208 268 175 491 342 765 575 137 117 496 472 628 622 220 251 307 359 469 587
365 512 621 993 848 1593 26 68 125 360 130 380 1 6 8 30 15 55 7 25 14 50 16
55 1 6 9 35 18 66 9 31 18 65 21 75 2 11 13 55 25 99 23 91 24 95 44 190 8 39
18 81 21 95 3 14 7 36 10 50 3 14 7 35 9 46 2 12 7 39 10 60 4 22 8 46 11 54
2 8 7 38 10 65 4 28 8 59 10 70 2 11 6 43 10 70 4 28 9 58 10 67 2 9 7 48 10
85 4 37 9 82 11 98 4 30 13 130 19 215 26 339 21 806 -10 1125 -4 39 -8 86
-10 105 -4 49 -18 156 -30 243 -20 138 -28 187 -40 247 -2 14 -7 41 -10 60 -3
19 -15 78 -26 130 -11 52 -22 106 -25 120 -3 14 -10 43 -16 65 -5 22 -12 48
-14 58 -2 10 -6 27 -9 37 -3 10 -8 27 -10 37 -2 10 -9 34 -14 53 -33 122 -45
165 -71 250 -16 52 -30 98 -30 102 -1 4 -10 31 -21 60 -11 29 -22 60 -24 69
-2 8 -11 33 -20 55 -9 21 -18 46 -20 54 -3 17 -103 272 -131 335 -10 22 -18
42 -19 45 -6 24 -236 495 -264 540 -6 8 -40 69 -77 135 -108 194 -279 457
-416 643 -48 65 -88 106 -135 140 -88 62 -236 178 -348 271 -125 104 -430 412
-546 551 -102 122 -287 365 -297 390 -3 8 -23 37 -44 65 -21 27 -38 55 -38 61
0 6 -9 19 -20 29 -11 10 -20 22 -20 27 0 5 -16 33 -35 63 -64 101 -198 358
-260 500 -22 50 -46 100 -53 113 -8 12 -11 22 -8 22 4 0 1 10 -6 23 -7 12 -12
24 -13 27 0 5 -61 169 -75 205 -9 21 -32 93 -36 110 -1 6 -11 37 -22 70 -11
33 -36 128 -57 210 -36 146 -40 162 -50 215 -3 14 -7 36 -10 50 -7 35 -13 69
-20 114 -4 21 -8 48 -11 59 -9 49 -23 153 -30 232 -3 33 -7 71 -9 85 -8 44
-19 303 -19 435 0 188 12 366 39 605 3 27 13 94 19 125 2 11 7 40 11 65 4 25
9 54 11 65 2 11 6 31 9 45 10 52 14 72 19 88 3 9 7 34 11 56 3 21 7 41 10 45
2 4 6 19 9 33 7 41 53 206 81 293 14 44 28 87 30 95 2 8 16 47 30 85 15 39 27
75 29 80 1 6 10 27 19 49 9 21 17 41 17 43 0 3 14 37 31 76 105 244 198 428
314 618 30 50 55 94 55 99 0 4 3 10 8 12 4 2 27 34 52 73 25 38 50 77 57 85 7
8 52 69 101 135 210 284 505 591 812 846 142 118 532 389 560 389 5 0 10 5 10
10 0 6 4 10 9 10 5 0 53 25 107 56 145 82 550 274 579 274 4 0 21 6 38 14 28
12 61 25 77 31 3 1 12 4 20 8 16 6 91 30 100 32 3 1 48 15 100 32 127 42 377
107 454 118 15 2 35 7 45 9 16 5 59 13 116 22 34 6 52 9 115 19 25 4 56 9 70
10 14 2 52 6 85 10 272 34 720 38 990 11 36 -4 137 -16 185 -22 90 -12 107
-14 130 -19 13 -2 42 -7 65 -10 22 -3 47 -8 55 -10 8 -2 29 -7 45 -10 47 -8
75 -14 93 -19 16 -5 28 -7 100 -21 15 -3 52 -13 82 -21 30 -9 66 -18 79 -21
13 -2 31 -8 40 -12 9 -5 18 -9 21 -8 3 0 59 -17 125 -38 66 -21 122 -39 125
-39 6 -1 66 -24 105 -41 25 -11 64 -24 85 -30 7 -2 79 -33 127 -56 24 -10 45
-19 48 -19 11 0 251 -120 353 -177 62 -35 117 -63 122 -63 4 0 10 -4 12 -8 2
-4 32 -26 68 -47 453 -270 963 -729 1285 -1155 27 -36 53 -69 57 -75 25 -32
65 -85 74 -101 12 -18 13 -18 32 1 10 11 298 296 639 633 853 843 834 824 829
836 -2 6 -52 70 -111 141 -295 360 -640 700 -1025 1011 -173 140 -574 424
-599 424 -5 0 -11 4 -13 8 -4 10 -203 132 -215 132 -5 0 -14 5 -21 12 -36 36
-737 388 -773 388 -5 0 -17 4 -27 9 -25 13 -80 37 -132 56 -25 9 -54 21 -65
25 -99 42 -468 162 -610 200 -60 15 -117 31 -125 34 -8 3 -26 8 -40 10 -14 3
-56 13 -95 22 -38 8 -81 18 -95 20 -14 3 -41 9 -60 14 -19 5 -53 12 -75 15
-22 4 -47 8 -55 10 -8 3 -32 7 -54 11 -21 3 -48 8 -60 10 -53 11 -118 21 -181
30 -27 3 -59 8 -70 9 -79 11 -161 21 -265 30 -30 3 -73 7 -96 10 -121 12 -289
18 -547 19 -158 1 -289 1 -290 0z"/>
<path d="M15278 19065 c-2 -1 -73 -6 -158 -9 -178 -7 -199 -9 -365 -31 -65 -9
-123 -19 -230 -41 -151 -32 -139 -29 -210 -48 -33 -10 -67 -19 -75 -21 -8 -2
-15 -4 -15 -5 0 -1 -9 -3 -20 -5 -11 -3 -54 -16 -95 -30 -41 -14 -82 -28 -90
-30 -8 -2 -16 -4 -17 -5 -2 -2 -6 -3 -10 -5 -19 -5 -73 -26 -125 -49 -20 -9
-39 -16 -42 -16 -14 0 -327 -148 -336 -159 -3 -3 -23 -15 -45 -26 -69 -34
-328 -196 -380 -237 -5 -4 -55 -42 -110 -85 -251 -192 -456 -393 -663 -651
-90 -112 -274 -378 -288 -417 -4 -11 -10 -22 -14 -25 -10 -8 -104 -182 -150
-276 -60 -128 -152 -350 -165 -404 -1 -3 -7 -18 -14 -35 -7 -16 -21 -61 -32
-100 -12 -38 -25 -83 -29 -100 -14 -45 -39 -147 -45 -175 -3 -14 -7 -36 -10
-50 -3 -14 -8 -38 -10 -55 -3 -16 -8 -37 -10 -45 -5 -18 -15 -73 -20 -115 -2
-16 -7 -46 -10 -65 -6 -36 -9 -62 -22 -195 -15 -159 -8 -643 11 -765 5 -27 13
-92 21 -154 3 -22 7 -51 10 -65 3 -14 7 -39 10 -56 3 -16 8 -37 10 -45 2 -8 7
-31 10 -50 3 -19 8 -43 11 -52 3 -9 7 -25 9 -35 17 -88 101 -364 136 -449 7
-16 13 -33 14 -39 2 -5 11 -28 20 -50 10 -22 19 -45 20 -50 2 -10 27 -63 92
-203 70 -149 220 -398 340 -566 251 -348 619 -703 978 -941 33 -22 61 -43 63
-47 2 -5 7 -8 11 -8 5 0 48 -24 97 -53 74 -45 319 -177 327 -176 1 0 22 -9 47
-20 25 -11 50 -20 55 -21 6 -1 15 -5 20 -10 22 -18 354 -139 430 -157 40 -9
50 -11 50 -13 0 -2 5 -3 75 -20 25 -7 54 -14 65 -17 11 -2 38 -9 60 -13 22 -5
51 -12 65 -15 14 -3 36 -7 50 -10 14 -2 40 -6 58 -9 64 -12 91 -16 128 -21 22
-3 55 -7 74 -10 195 -28 748 -28 910 0 14 2 48 6 75 10 28 3 59 7 70 9 11 2
40 7 64 10 24 4 47 8 51 11 3 2 29 7 56 11 27 3 52 8 57 11 4 2 20 6 35 9 15
2 43 8 62 14 99 27 150 40 155 40 3 0 21 6 40 14 19 8 35 13 35 11 0 -2 44 12
97 31 519 185 968 454 1346 804 47 43 544 534 1332 1315 623 617 1221 1210
2146 2125 303 300 581 575 617 612 71 72 73 76 52 158 -5 19 -12 51 -15 70 -3
19 -13 62 -22 95 -8 33 -17 69 -19 80 -2 11 -13 56 -24 100 -12 44 -23 87 -25
95 -12 46 -48 171 -61 210 -9 25 -17 52 -19 60 -4 17 -72 217 -82 240 -3 8 -7
17 -8 20 -5 19 -31 91 -43 120 -9 19 -16 37 -17 40 -4 12 -19 48 -36 87 -10
24 -19 45 -19 47 0 3 -5 17 -12 33 -6 15 -12 30 -13 33 -1 3 -11 25 -22 50
-11 25 -30 68 -43 95 -31 69 -170 347 -210 420 -18 33 -45 81 -59 108 -14 26
-28 47 -31 47 -3 0 -213 -206 -468 -457 -1074 -1062 -1679 -1663 -1750 -1735
-75 -78 -92 -89 -92 -65 0 6 -20 66 -45 132 -172 455 -382 817 -680 1171 -93
110 -301 320 -420 423 -140 121 -410 321 -433 321 -6 0 -12 4 -14 8 -9 23
-371 219 -528 286 -36 15 -80 35 -99 43 -18 8 -39 16 -45 18 -14 3 -46 14 -71
26 -11 5 -30 11 -42 14 -12 2 -30 8 -40 13 -10 6 -21 11 -25 11 -4 1 -13 4
-20 6 -15 5 -189 56 -203 59 -5 1 -19 5 -30 9 -11 3 -31 9 -45 11 -14 3 -47
11 -75 16 -27 6 -61 13 -75 16 -14 2 -45 9 -70 14 -25 5 -63 12 -85 15 -23 3
-50 7 -62 9 -21 5 -116 16 -183 22 -19 2 -98 6 -175 9 -77 3 -154 7 -172 9
-18 2 -33 2 -35 1z m237 -2098 c11 -3 40 -8 65 -12 71 -12 78 -13 163 -35 356
-93 716 -328 929 -609 24 -31 45 -58 48 -61 3 -3 29 -42 58 -88 131 -208 225
-466 260 -717 9 -70 8 -400 -2 -460 -5 -27 -9 -57 -11 -65 -1 -8 -5 -28 -8
-45 -4 -16 -9 -39 -12 -50 -2 -11 -11 -45 -20 -75 -9 -30 -17 -59 -18 -65 -2
-9 -19 -56 -37 -100 -4 -11 -16 -38 -26 -60 -10 -22 -18 -42 -19 -45 -1 -14
-92 -170 -142 -242 -170 -252 -420 -465 -703 -600 -89 -43 -282 -111 -346
-123 -28 -5 -47 -8 -104 -20 -136 -27 -430 -27 -570 -1 -14 3 -42 7 -64 10
-21 4 -41 8 -45 11 -4 2 -20 6 -35 9 -44 8 -160 47 -261 87 -16 7 -32 13 -35
14 -25 6 -277 149 -290 164 -3 4 -32 26 -65 50 -142 106 -312 294 -415 461
-61 97 -144 265 -154 310 -1 3 -9 25 -18 50 -19 51 -58 199 -64 245 -2 17 -6
41 -9 55 -24 109 -24 463 0 532 2 7 6 29 9 48 8 50 13 71 44 190 17 66 75 205
124 300 174 335 437 594 773 760 124 61 282 122 347 134 13 2 41 9 63 15 41
10 78 16 175 27 30 3 56 7 58 9 5 4 334 -3 357 -8z"/>
<path d="M21777 14888 c-219 -216 -667 -661 -998 -988 -620 -615 -1335 -1323
-1862 -1845 -411 -407 -514 -500 -752 -678 -245 -183 -449 -309 -726 -449 -97
-48 -179 -88 -181 -88 -3 0 -27 -10 -54 -22 -27 -12 -51 -23 -54 -23 -3 -1
-25 -11 -50 -22 -25 -11 -63 -26 -85 -33 -22 -7 -44 -15 -50 -19 -5 -3 -14 -6
-20 -8 -5 -1 -57 -18 -115 -38 -58 -20 -112 -38 -121 -40 -9 -2 -37 -10 -62
-19 -25 -8 -56 -17 -69 -20 -13 -2 -30 -7 -38 -10 -8 -3 -26 -7 -40 -10 -14
-2 -52 -12 -85 -20 -33 -9 -76 -19 -95 -22 -19 -3 -43 -7 -52 -10 -9 -3 -25
-6 -35 -8 -43 -8 -90 -16 -113 -21 -13 -3 -42 -7 -65 -10 -22 -4 -52 -8 -66
-10 -39 -7 -98 -14 -159 -21 -30 -3 -71 -7 -90 -9 -206 -24 -676 -24 -890 0
-123 13 -148 16 -170 20 -14 2 -47 6 -75 10 -61 8 -80 12 -122 19 -18 3 -48 8
-65 11 -18 3 -40 8 -48 10 -8 2 -31 7 -50 10 -19 3 -43 8 -52 11 -9 3 -27 7
-40 9 -13 3 -76 19 -142 36 -65 16 -119 29 -121 27 -1 -2 27 -64 64 -139 58
-119 111 -233 115 -249 1 -3 12 -27 24 -54 12 -27 22 -50 22 -52 0 -2 9 -26
21 -52 24 -54 39 -88 49 -117 4 -11 13 -33 20 -50 70 -172 237 -687 265 -818
2 -10 7 -27 10 -37 3 -10 8 -27 10 -37 2 -10 17 -74 34 -143 16 -69 33 -141
36 -160 3 -19 8 -42 10 -50 2 -8 7 -31 10 -50 3 -19 8 -42 10 -50 2 -8 7 -30
10 -47 3 -18 8 -48 11 -65 4 -18 6 -41 6 -50 0 -10 7 -19 16 -19 9 -1 28 -3
42 -4 259 -24 829 -24 1105 0 22 2 71 6 108 9 37 4 82 8 100 11 18 2 57 7 87
10 30 3 64 7 75 9 11 2 43 7 70 10 28 4 61 9 75 11 53 9 91 15 123 21 52 9 70
12 106 18 18 3 40 8 50 10 9 3 30 8 46 11 17 2 41 7 55 10 14 3 34 8 45 10 11
3 29 7 40 10 11 2 49 11 85 19 36 8 86 20 110 27 53 15 59 16 85 23 11 3 45
12 75 21 30 9 60 17 65 19 6 1 37 11 70 21 33 10 62 19 65 20 16 3 153 49 198
65 28 11 78 29 110 41 67 25 57 21 237 94 302 124 599 273 890 448 709 426
1341 978 1859 1627 38 47 76 95 86 107 10 12 27 34 37 50 9 15 20 30 23 33 11
10 110 149 182 255 201 298 415 680 561 1005 75 166 178 420 171 420 -2 0 4
17 15 38 10 20 20 42 21 47 1 6 4 15 6 20 2 6 22 65 44 133 23 68 43 131 45
140 1 9 10 40 20 68 9 28 18 57 19 65 1 8 10 39 20 70 9 31 18 65 20 75 2 11
12 48 21 84 9 36 18 72 20 80 2 8 11 47 20 85 9 39 18 86 21 105 3 19 7 43 10
52 3 10 7 28 9 40 12 68 14 80 19 96 2 9 7 37 10 62 4 25 8 56 10 70 14 77 30
201 42 310 3 25 7 61 9 80 4 35 12 136 20 240 7 97 17 510 13 510 -3 0 -183
-177 -401 -392z"/>
<path d="M6847 13984 c-1 -1 -65 -5 -142 -9 -77 -3 -153 -8 -170 -9 -16 -2
-66 -7 -110 -11 -44 -3 -93 -8 -110 -10 -53 -7 -170 -22 -230 -30 -22 -3 -51
-7 -65 -10 -13 -2 -40 -7 -60 -10 -20 -3 -47 -8 -60 -10 -14 -3 -40 -7 -59
-10 -18 -2 -41 -7 -50 -9 -9 -3 -29 -8 -46 -11 -16 -2 -41 -7 -55 -10 -14 -3
-36 -8 -50 -10 -73 -11 -404 -98 -555 -144 -55 -18 -108 -33 -117 -36 -23 -5
-324 -113 -363 -130 -43 -18 -68 -28 -84 -31 -7 -1 -18 -7 -24 -13 -6 -6 -16
-11 -23 -11 -6 0 -38 -12 -70 -27 -33 -15 -61 -27 -64 -28 -53 -10 -615 -298
-715 -365 -22 -15 -42 -28 -45 -28 -19 0 -483 -309 -585 -390 -5 -4 -39 -30
-75 -57 -415 -314 -963 -856 -1235 -1220 -16 -22 -32 -42 -36 -45 -3 -3 -29
-36 -57 -75 -28 -38 -55 -74 -60 -80 -19 -23 -153 -218 -215 -313 -225 -342
-432 -740 -602 -1152 -15 -36 -28 -69 -29 -75 -2 -5 -7 -19 -11 -30 -21 -52
-47 -121 -50 -130 -1 -5 -5 -17 -8 -25 -10 -24 -96 -280 -96 -285 0 -3 -8 -30
-16 -60 -9 -30 -17 -58 -17 -62 0 -5 -5 -19 -10 -33 -5 -14 -12 -33 -14 -42
-2 -10 -6 -26 -8 -35 -2 -10 -14 -54 -25 -98 -12 -44 -24 -91 -27 -105 -3 -14
-7 -33 -10 -42 -5 -17 -10 -42 -20 -92 -2 -16 -6 -32 -8 -35 -2 -3 -7 -22 -10
-41 -3 -19 -8 -45 -10 -56 -2 -12 -7 -37 -10 -55 -3 -19 -7 -43 -10 -54 -2
-11 -7 -40 -11 -65 -4 -25 -9 -52 -10 -60 -5 -26 -14 -93 -20 -140 -4 -25 -8
-56 -10 -70 -9 -56 -23 -191 -30 -288 -3 -40 -8 -94 -11 -120 -2 -26 -7 -193
-11 -372 l-6 -325 24 20 c13 11 173 169 356 350 454 450 1164 1153 1876 1858
519 513 603 601 662 688 59 86 81 117 132 184 5 6 24 30 43 55 95 124 260 310
390 440 325 326 661 581 1072 814 61 34 364 186 372 186 3 0 25 9 49 20 23 10
78 33 122 50 44 17 89 35 100 40 30 13 164 60 215 75 25 7 86 25 135 40 50 15
97 29 105 31 8 2 35 8 60 15 59 14 80 19 110 25 14 3 45 10 70 15 25 6 54 13
65 15 11 2 31 6 45 9 14 3 41 7 60 10 19 3 46 7 60 10 14 3 41 8 60 10 19 2
53 6 75 9 133 18 150 20 325 32 204 14 579 8 750 -11 19 -2 62 -6 95 -10 94
-10 118 -13 155 -20 19 -3 47 -8 63 -10 15 -3 39 -7 55 -10 15 -2 43 -7 62
-10 19 -3 42 -8 50 -10 8 -2 31 -7 50 -10 19 -3 43 -8 52 -11 9 -3 25 -6 35
-8 10 -2 73 -18 140 -35 68 -17 125 -31 127 -31 2 0 -24 57 -59 128 -82 166
-159 343 -229 522 -32 80 -64 160 -72 178 -7 18 -14 37 -14 43 0 6 -6 25 -14
42 -12 25 -97 276 -101 297 -1 3 -7 25 -15 50 -18 59 -18 59 -29 100 -5 19
-21 78 -36 130 -15 52 -29 103 -31 113 -2 10 -6 27 -9 37 -6 19 -12 45 -21 90
-3 14 -10 43 -16 65 -12 46 -16 67 -24 115 -3 19 -8 38 -10 41 -2 4 -6 24 -10
45 -3 22 -12 71 -19 109 -8 39 -16 83 -19 99 -7 42 15 36 -196 52 -83 6 -657
13 -663 8z"/>
<path d="M6829 10936 c-2 -2 -38 -7 -79 -10 -105 -9 -219 -23 -264 -32 -46 -9
-82 -16 -101 -19 -33 -4 -167 -34 -209 -46 -21 -6 -48 -13 -60 -15 -38 -9 -51
-12 -51 -14 0 -1 -9 -3 -20 -5 -11 -2 -56 -16 -100 -31 -44 -14 -84 -27 -90
-28 -52 -10 -455 -182 -505 -216 -8 -6 -26 -15 -39 -20 -48 -21 -239 -135
-351 -210 -226 -152 -433 -327 -677 -572 -66 -68 -412 -411 -767 -763 -356
-352 -865 -856 -1131 -1120 -267 -264 -735 -727 -1040 -1030 -874 -864 -1000
-993 -998 -1012 4 -33 12 -78 28 -153 9 -41 18 -85 21 -97 2 -12 9 -34 14 -48
5 -14 7 -25 5 -25 -2 0 0 -11 5 -25 5 -14 12 -36 14 -48 5 -28 40 -160 62
-235 15 -52 20 -68 23 -82 9 -46 168 -483 213 -590 6 -14 12 -29 14 -35 12
-51 257 -556 322 -665 11 -19 30 -54 42 -77 12 -24 25 -43 29 -43 4 0 30 24
58 53 28 28 316 314 639 634 324 320 816 807 1094 1083 546 540 520 519 536
433 3 -18 10 -36 15 -39 5 -3 9 -11 9 -19 0 -8 5 -26 12 -42 6 -15 12 -30 13
-33 5 -24 49 -127 57 -137 6 -7 7 -13 4 -13 -4 0 0 -12 8 -27 8 -16 43 -84 76
-153 33 -69 65 -132 70 -140 5 -8 32 -55 61 -105 407 -707 1091 -1302 1849
-1608 173 -70 376 -139 475 -161 6 -1 19 -5 30 -9 11 -3 31 -8 45 -11 14 -3
36 -8 50 -11 14 -3 39 -8 55 -11 17 -2 46 -9 65 -14 19 -5 53 -11 75 -15 23
-3 52 -8 65 -10 14 -3 43 -7 65 -10 22 -3 55 -7 73 -9 129 -17 220 -21 462
-21 243 0 379 6 460 19 14 3 45 7 70 10 25 4 59 8 75 11 66 11 91 15 115 20
14 3 36 7 50 10 36 7 218 51 265 65 22 6 48 12 58 15 67 16 344 118 462 171
22 10 42 18 45 19 3 1 61 30 130 64 668 339 1226 868 1602 1521 59 103 155
291 180 355 9 22 24 58 34 80 10 22 18 42 19 45 1 3 7 18 13 33 7 16 12 33 12
38 0 5 4 17 9 27 10 17 84 227 81 227 -2 0 7 32 18 70 20 70 50 196 67 285 3
14 7 36 10 50 2 13 7 40 10 60 3 20 7 47 10 60 4 22 12 81 20 155 25 217 25
634 1 830 -2 17 -7 55 -11 85 -3 30 -8 67 -11 83 -14 88 -22 132 -29 167 -3
14 -8 39 -11 55 -3 17 -12 57 -20 90 -9 33 -18 69 -21 80 -5 25 -7 31 -23 85
-7 25 -14 50 -16 55 -6 32 -89 268 -109 310 -12 28 -26 61 -30 75 -14 46 -136
294 -197 400 -305 532 -720 975 -1223 1306 -149 98 -157 103 -175 111 -8 3
-26 14 -40 23 -30 21 -236 126 -335 171 -163 73 -522 196 -655 223 -14 3 -56
12 -95 21 -38 8 -83 18 -100 21 -16 2 -37 7 -45 9 -8 2 -37 7 -65 10 -27 4
-59 8 -70 10 -11 2 -45 6 -75 10 -30 4 -73 9 -95 12 -48 6 -631 14 -636 9z
m487 -2089 c12 -3 39 -8 60 -12 76 -12 129 -22 154 -30 10 -3 27 -7 37 -10 49
-9 251 -88 325 -126 297 -153 551 -392 717 -673 46 -78 97 -180 101 -201 1 -5
7 -19 13 -30 6 -11 12 -24 13 -30 1 -5 11 -35 22 -65 23 -62 48 -150 56 -195
3 -16 8 -41 11 -55 33 -157 38 -435 10 -577 -2 -11 -6 -38 -9 -59 -4 -22 -9
-47 -12 -56 -3 -9 -7 -27 -9 -40 -3 -13 -17 -61 -32 -108 -15 -47 -28 -87 -28
-90 -16 -53 -107 -233 -163 -320 -81 -126 -136 -195 -242 -300 -103 -104 -215
-193 -325 -259 -38 -23 -77 -47 -85 -52 -31 -18 -180 -87 -180 -83 0 3 -10 -1
-22 -8 -13 -7 -25 -13 -28 -13 -3 0 -43 -13 -90 -28 -86 -26 -146 -41 -210
-51 -19 -3 -57 -8 -85 -13 -102 -15 -398 -8 -495 12 -14 3 -41 8 -60 11 -45 8
-56 11 -105 24 -22 6 -56 15 -75 20 -20 5 -62 21 -95 36 -33 14 -60 25 -60 24
0 -1 -30 12 -68 29 -225 101 -467 293 -628 498 -81 104 -99 130 -123 173 -10
19 -21 37 -25 40 -21 17 -154 325 -150 350 0 3 -5 19 -11 35 -13 34 -14 37
-35 135 -25 115 -36 219 -37 345 0 87 9 224 17 255 2 8 7 35 10 60 3 25 8 53
11 62 3 9 7 26 9 37 2 12 16 61 31 109 15 48 28 89 29 92 1 3 9 23 19 45 10
22 19 45 20 50 4 21 90 183 127 238 22 32 39 61 39 63 0 3 6 11 13 19 6 7 23
27 37 45 209 270 481 469 800 585 41 15 82 29 90 31 75 20 141 35 169 40 18 3
43 8 55 10 11 3 48 7 81 11 33 3 61 7 63 8 6 5 325 -3 348 -8z"/>
</g>
</svg>
